# xmcd
#
# Track frame offsets: 
#        150
#        20562
#        38121
#        58317
#        74783
#        92188
#        108197
#        126914
#        143610
#
# Disc length: 2264 seconds
#
# Revision: 1
# Processed by: cddbd v1.5.2PL0 Copyright (c) Steve Scherf et al.
# Submitted via: ExactAudioCopy v1.3
#
DISCID=8408d609
DTITLE=The Rhythm Junks - Beaten Borders
DYEAR=2013
DGENRE=Blues - Rock
TTITLE0=Offline Land
TTITLE1=Some People
TTITLE2=Never the Same
TTITLE3=Dreamer, Dream On
TTITLE4=Drowing Sailors
TTITLE5=Checking In
TTITLE6=Burnin' Burnin' Burnin'
TTITLE7=Hard to Keep a Promise
TTITLE8=Maybe Slowly
EXTD=
EXTT0=
EXTT1=
EXTT2=
EXTT3=
EXTT4=
EXTT5=
EXTT6=
EXTT7=
EXTT8=
PLAYORDER=
